# xmcd CD database file
#
# Track frame offsets:
#	150
#	21548
#	38903
#	53917
#	62326
#	84334
#	96751
#	118020
#	137505
#	153507
#	168456
#
# Disc length: 2440 seconds
#
# Revision: 0
# Processed by: cddbd v1.5.2PL0 Copyright (c) Steve Scherf et al.
# Submitted via: CDex 1.70beta1
#
DISCID=8a09860b
DTITLE=Rev. Gary Davis - Manchester Free Trade Hall 1964
DYEAR=2007
DGENRE=Blues
TTITLE0=You Got To Move
TTITLE1=If I Had My Way
TTITLE2=The Sun Is Going Down
TTITLE3=I'm A Soldier
TTITLE4=I Got A Little Mama, Sweet As She Can Be
TTITLE5=Sally, Please Come Back To Me (Worried Blues)
TTITLE6=Cocaine Blues
TTITLE7=Cincinnati Flow Rag
TTITLE8=Children Of Zion
TTITLE9=Coon Hunt
TTITLE10=Maple Leaf Rag
EXTD=YEAR: 2007
EXTT0=
EXTT1=
EXTT2=
EXTT3=
EXTT4=
EXTT5=
EXTT6=
EXTT7=
EXTT8=
EXTT9=
EXTT10=
PLAYORDER=
